<?xml version="1.0" encoding="UTF-8" standalone="no"?>
<svg
   version="1.1"
   id="Layer_1"
   x="0px"
   y="0px"
   width="96px"
   height="96px"
   viewBox="0 0 96 96"
   enable-background="new 0 0 96 96"
   xml:space="preserve"
   sodipodi:docname="green-checkmark-icon.svg"
   inkscape:version="1.3.2 (091e20ef0f, 2023-11-25)"
   xmlns:inkscape="http://www.inkscape.org/namespaces/inkscape"
   xmlns:sodipodi="http://sodipodi.sourceforge.net/DTD/sodipodi-0.dtd"
   xmlns="http://www.w3.org/2000/svg"
   xmlns:svg="http://www.w3.org/2000/svg"><defs
     id="defs1" /><sodipodi:namedview
     id="namedview1"
     pagecolor="#ffffff"
     bordercolor="#999999"
     borderopacity="1"
     inkscape:showpageshadow="2"
     inkscape:pageopacity="0"
     inkscape:pagecheckerboard="0"
     inkscape:deskcolor="#d1d1d1"
     inkscape:zoom="5.7673397"
     inkscape:cx="46.468565"
     inkscape:cy="36.15185"
     inkscape:window-width="1920"
     inkscape:window-height="1015"
     inkscape:window-x="0"
     inkscape:window-y="0"
     inkscape:window-maximized="1"
     inkscape:current-layer="Layer_1" /><g
     id="g1"
     style="fill:#00af00;fill-opacity:1"><path
       fill-rule="evenodd"
       clip-rule="evenodd"
       fill="#6BBE66"
       d="M48,0c26.51,0,48,21.49,48,48S74.51,96,48,96S0,74.51,0,48 S21.49,0,48,0L48,0z M26.764,49.277c0.644-3.734,4.906-5.813,8.269-3.79c0.305,0.182,0.596,0.398,0.867,0.646l0.026,0.025 c1.509,1.446,3.2,2.951,4.876,4.443l1.438,1.291l17.063-17.898c1.019-1.067,1.764-1.757,3.293-2.101 c5.235-1.155,8.916,5.244,5.206,9.155L46.536,63.366c-2.003,2.137-5.583,2.332-7.736,0.291c-1.234-1.146-2.576-2.312-3.933-3.489 c-2.35-2.042-4.747-4.125-6.701-6.187C26.993,52.809,26.487,50.89,26.764,49.277L26.764,49.277z"
       id="path1"
       style="fill:#00af00;fill-opacity:1" /></g></svg>
